# xmcd
#
# Track frame offsets: 
#        150
#        13740
#        26187
#        37280
#        47732
#        55560
#        65865
#        82337
#        96437
#        106232
#
# Disc length: 1564 seconds
#
# Revision: 0
# Processed by: cddbd v1.5.1PL0 Copyright (c) Steve Scherf et al.
# Submitted via: ExactAudioCopy v0.95a5
#
DISCID=90061a0a
DTITLE=The Fox Brothers - Recipes For Living
DYEAR=1992
DGENRE=Bluegrass
TTITLE0=Mama's Daily Bread
TTITLE1=Each Step I Take
TTITLE2=Love Will Find A Way
TTITLE3=Way Down Deep
TTITLE4=Made Up Heart
TTITLE5=You're The Rock that Rolls My Blues Away
TTITLE6=They Did It All For Me
TTITLE7=Simple Country Ways
TTITLE8=Jesus Lived In Arkansas
TTITLE9=I Didn't Stop Dancin'
EXTD=
EXTT0=
EXTT1=
EXTT2=
EXTT3=
EXTT4=
EXTT5=
EXTT6=
EXTT7=
EXTT8=
EXTT9=
PLAYORDER=
